<svg id="svg" version="1.1" xmlns="http://www.w3.org/2000/svg" xmlns:xlink="http://www.w3.org/1999/xlink" width="400" height="400" viewBox="0, 0, 400,400"><g id="svgg"><path id="path0" d="M50.000 175.000 L 50.000 250.000 75.000 250.000 L 100.000 250.000 100.000 275.000 L 100.000 300.000 200.000 300.000 L 300.000 300.000 300.000 275.000 L 300.000 250.000 325.000 250.000 L 350.000 250.000 350.000 225.000 L 350.000 200.000 375.000 200.000 L 400.000 200.000 400.000 150.000 L 400.000 100.000 225.000 100.000 L 50.000 100.000 50.000 175.000 M350.000 175.000 L 350.000 200.000 325.000 200.000 L 300.000 200.000 300.000 175.000 L 300.000 150.000 325.000 150.000 L 350.000 150.000 350.000 175.000 M50.000 375.000 L 50.000 400.000 200.000 400.000 L 350.000 400.000 350.000 375.000 L 350.000 350.000 200.000 350.000 L 50.000 350.000 50.000 375.000 " stroke="none" fill="#f4f4f4" fill-rule="evenodd"></path><path id="path1" d="M50.000 275.000 L 50.000 300.000 75.000 300.000 L 100.000 300.000 100.000 325.000 L 100.000 350.000 200.000 350.000 L 300.000 350.000 300.000 325.000 L 300.000 300.000 325.000 300.000 L 350.000 300.000 350.000 275.000 L 350.000 250.000 325.000 250.000 L 300.000 250.000 300.000 275.000 L 300.000 300.000 200.000 300.000 L 100.000 300.000 100.000 275.000 L 100.000 250.000 75.000 250.000 L 50.000 250.000 50.000 275.000 " stroke="none" fill="#dcdcdc" fill-rule="evenodd"></path><path id="path2" d="M50.000 25.000 L 50.000 50.000 75.000 50.000 L 100.000 50.000 100.000 75.000 L 100.000 100.000 125.000 100.000 L 150.000 100.000 150.000 75.000 L 150.000 50.000 175.000 50.000 L 200.000 50.000 200.000 75.000 L 200.000 100.000 225.000 100.000 L 250.000 100.000 250.000 75.000 L 250.000 50.000 225.000 50.000 L 200.000 50.000 200.000 25.000 L 200.000 0.000 175.000 0.000 L 150.000 0.000 150.000 25.000 L 150.000 50.000 125.000 50.000 L 100.000 50.000 100.000 25.000 L 100.000 0.000 75.000 0.000 L 50.000 0.000 50.000 25.000 " stroke="none" fill="#ac7c6c" fill-rule="evenodd"></path><path id="path3" d="" stroke="none" fill="#f8ecd0" fill-rule="evenodd"></path><path id="path4" d="" stroke="none" fill="#f8ecd0" fill-rule="evenodd"></path></g></svg>